<svg fill="none" height="24" viewBox="0 0 24 24" width="24" xmlns="http://www.w3.org/2000/svg"><path d="m10.3097 14.2306c-.37742-.1706-.82173-.003-.99237.3744-.17065.3774-.00302.8217.37441.9924zm1.691 1.1134.0008.7501.0121-.0002zm5-5.172-.7499-.0125c-.0001.0083-.0001.0167 0 .025zm-5-5.172.0129-.74989c-.0086-.00015-.0172-.00015-.0257 0zm-4.99998 5.172.75.0021c.00001-.0049-.00002-.0097-.0001-.0146zm.18314 3.2359c.22142.3501.68469.4544 1.03476.233.35007-.2215.45437-.6847.23296-1.0348zm3.54534 1.6844c.0985-.4023-.1478-.8083-.5502-.9068-.40233-.0985-.80831.1479-.90678.5502zm-2.45698 3.7294c-.09847.4023.14787.8083.55021.9068s.80832-.1479.90679-.5502zm.98949-4.0356c-.07066.4081.20292.7962.61107.8669.40812.0707.79632-.2029.86692-.6111zm2.47799-5.52016c.0707-.40814-.2029-.79628-.611-.86695-.4082-.07066-.7963.20292-.867.61107zm-2.04796 6.33146c.72576.3281 1.51326.4975 2.30976.4966l-.0016-1.5c-.5828.0006-1.1591-.1233-1.6902-.3634zm2.32186.4965c3.2226-.0553 5.7907-2.7117 5.737-5.9344l-1.4998.025c.0399 2.3946-1.8683 4.3685-4.2629 4.4096zm5.737-5.9094c.0537-3.22266-2.5144-5.87909-5.737-5.93439l-.0257 1.49978c2.3946.04109 4.3028 2.01499 4.2629 4.40961zm-5.7627-5.93439c-3.22267.0553-5.79076 2.71173-5.73708 5.93439l1.4998-.025c-.0399-2.39462 1.86836-4.36852 4.26298-4.40961zm-5.73718 5.91979c-.00321 1.1461.3205 2.2694.93314 3.238l1.26772-.8018c-.46015-.7275-.70327-1.5712-.70086-2.432zm3.0215 4.5658-1 4.086 1.457.3566.99998-4.086zm1.46748.3062 1-5.77596-1.478-.25588-.99999 5.77604z" fill="#000"/></svg>